<svg version="1.1" id="Layer_1" xmlns="http://www.w3.org/2000/svg" xmlns:xlink="http://www.w3.org/1999/xlink" x="0px" y="0px"
	 width="100%" viewBox="0 0 500 500" enable-background="new 0 0 500 500" xml:space="preserve">
<path fill="#FAF7F0" opacity="1.000000" stroke="none" 
	d="
M229.000000,501.000000 
	C152.666687,501.000000 76.833366,501.000000 1.000041,501.000000 
	C1.000027,334.333405 1.000027,167.666779 1.000014,1.000130 
	C167.666565,1.000087 334.333130,1.000087 500.999756,1.000043 
	C500.999847,167.666519 500.999847,334.333038 500.999939,500.999786 
	C410.500000,501.000000 320.000000,501.000000 229.000000,501.000000 
M29.998703,257.500000 
	C29.998783,264.659912 30.198275,271.827576 29.919725,278.976624 
	C29.767096,282.893829 30.963478,284.103271 34.965290,284.087128 
	C70.930817,283.942047 106.897499,283.931946 142.862869,284.095093 
	C147.165756,284.114594 148.091476,282.655487 148.079590,278.651733 
	C147.953629,236.192108 147.948975,193.731812 148.085022,151.272247 
	C148.098190,147.161087 146.977188,145.893478 142.785431,145.911453 
	C106.986488,146.065109 71.186142,146.085037 35.387558,145.893188 
	C30.815559,145.868698 29.890669,147.354416 29.909784,151.599228 
	C30.067259,186.565582 29.998730,221.532944 29.998703,257.500000 
M204.518646,187.995529 
	C201.064346,187.995529 197.610046,187.995529 193.520203,187.995529 
	C193.520203,178.418869 193.520203,169.362869 193.520203,160.410141 
	C188.625839,160.410141 184.397278,160.410141 180.217987,160.410141 
	C180.217987,183.406235 180.217987,205.985855 180.217987,228.626160 
	C184.796692,228.626160 189.009659,228.626160 193.869965,228.626160 
	C193.869965,219.043350 193.869965,209.820999 193.869965,200.576721 
	C203.934036,200.576721 213.338470,200.576721 223.291580,200.576721 
	C223.291580,210.149399 223.291580,219.393478 223.291580,228.630707 
	C228.087173,228.630707 232.317093,228.630707 236.677704,228.630707 
	C236.677704,205.687515 236.677704,183.119324 236.677704,160.467010 
	C231.996704,160.467010 227.648392,160.467010 222.874207,160.467010 
	C222.874207,169.856674 222.874207,178.782928 222.874207,187.995529 
	C216.794067,187.995529 211.154144,187.995529 204.518646,187.995529 
M271.211975,179.082550 
	C266.717743,179.160080 262.197723,178.959839 257.734741,179.373993 
	C248.914993,180.192444 248.800446,180.496735 249.908371,189.443832 
	C249.924713,189.575790 250.106689,189.687225 250.784454,190.470688 
	C256.322998,190.470688 262.465393,190.175339 268.565796,190.555099 
	C274.473419,190.922867 275.803741,193.230164 274.403534,199.191605 
	C268.615051,199.457275 262.783356,199.448502 257.017212,200.058853 
	C249.636383,200.840118 246.193161,205.107422 245.934509,212.939270 
	C245.626877,222.253647 248.397049,227.435013 256.034576,227.979065 
	C265.568970,228.658249 275.229279,227.820450 284.812531,227.253738 
	C286.050751,227.180511 288.138519,224.832977 288.163361,223.507675 
	C288.365997,212.687714 288.278473,201.858047 288.049286,191.036209 
	C287.947906,186.249405 285.264587,182.826202 280.840820,181.172546 
	C278.070129,180.136887 275.042969,179.787430 271.211975,179.082550 
M311.706757,218.453964 
	C311.707428,211.301346 311.680389,204.148605 311.717529,196.996170 
	C311.747589,191.202911 312.445709,190.512161 318.388000,190.364716 
	C321.326294,190.291794 324.267883,190.352051 327.064667,190.352051 
	C328.878632,180.572220 328.101654,179.524811 319.141632,179.102722 
	C316.486420,178.977646 313.812988,178.919418 311.162292,179.074982 
	C302.319336,179.593948 298.531067,183.346008 298.332031,192.241287 
	C298.123718,201.551727 298.279327,210.870285 298.276337,220.185303 
	C298.275452,222.960358 298.276215,225.735428 298.276215,228.657684 
	C303.048981,228.657684 307.085449,228.657684 311.706604,228.657684 
	C311.706604,225.345398 311.706604,222.389191 311.706757,218.453964 
M334.205811,212.497147 
	C334.205811,214.328445 334.205780,216.159729 334.205780,217.991028 
	C334.205780,229.710312 334.206024,229.713318 346.094574,228.858353 
	C346.376312,228.838089 346.638458,228.545120 346.993713,228.328018 
	C346.993713,212.011139 346.993713,195.656448 346.993713,178.988770 
	C343.897095,178.988770 341.227692,179.201080 338.606171,178.937424 
	C334.967773,178.571487 334.078094,180.149445 334.144012,183.530457 
	C334.325714,192.849838 334.206207,202.175095 334.205811,212.497147 
M295.557281,274.283051 
	C300.757782,268.955414 299.701538,262.297333 293.132263,259.390472 
	C290.703064,258.315552 288.055756,257.680969 285.746124,256.412018 
	C284.671967,255.821854 283.479858,254.111755 283.609070,253.065979 
	C283.723206,252.142426 285.542236,250.857071 286.706238,250.744797 
	C289.984192,250.428665 293.312469,250.634384 296.420685,250.634384 
	C298.068939,246.878891 296.637207,245.454620 293.475952,245.259933 
	C290.986145,245.106613 288.476044,244.917282 285.994995,245.070007 
	C281.845581,245.325470 277.894470,246.160110 277.030792,251.234970 
	C276.076385,256.842590 277.930145,259.998749 283.294708,262.068878 
	C285.310272,262.846680 287.506195,263.311249 289.314728,264.417511 
	C290.525665,265.158234 291.199036,266.777802 292.112976,268.004089 
	C290.887726,268.814148 289.732422,270.151489 288.422791,270.325195 
	C285.638580,270.694427 282.769806,270.562347 279.943665,270.444427 
	C276.390778,270.296173 276.011383,271.983521 277.623779,276.022095 
	C283.153656,275.602386 289.019409,275.157166 295.557281,274.283051 
M250.709579,265.536194 
	C250.709579,263.115112 250.709579,260.694031 250.709579,258.323639 
	C257.961212,257.969879 258.325470,258.281403 258.419403,264.654144 
	C258.472961,268.287994 258.429077,271.923248 258.429077,275.708679 
	C260.651581,275.708679 262.374176,275.708679 264.481720,275.708679 
	C264.481720,272.429138 264.497223,269.452301 264.478912,266.475677 
	C264.416718,256.376068 265.094177,252.209427 251.993576,252.928101 
	C251.707794,252.943771 251.406815,252.682312 250.881134,252.445923 
	C250.729004,250.145584 250.568909,247.724701 250.399826,245.168243 
	C248.400955,245.168243 246.779785,245.168243 244.898926,245.168243 
	C244.898926,255.435394 244.898926,265.520142 244.898926,275.704224 
	C246.793823,275.704224 248.530029,275.704224 250.709381,275.704224 
	C250.709381,272.434814 250.709381,269.464935 250.709579,265.536194 
M321.980255,260.941437 
	C321.717560,256.308136 319.541229,253.275452 314.684113,253.127899 
	C310.319916,252.995316 304.614380,251.633377 303.019409,257.095062 
	C301.694458,261.632080 302.425903,266.869934 302.838959,271.747131 
	C302.948853,273.044647 305.035736,274.672180 306.559631,275.271057 
	C315.813995,278.907593 321.980408,274.662872 322.047638,264.823181 
	C322.054443,263.824127 322.027130,262.824829 321.980255,260.941437 
M401.637451,253.400696 
	C388.924408,251.827408 386.117096,254.451538 386.866608,267.234741 
	C386.934235,268.387939 386.804657,269.693024 387.302246,270.648712 
	C388.106079,272.192566 389.071106,273.962036 390.468750,274.829956 
	C394.906006,277.585449 403.910645,276.016724 405.876678,272.443909 
	C408.875732,266.993958 406.941895,256.549988 401.637451,253.400696 
M200.990646,269.376587 
	C202.858154,275.545837 207.867844,277.747070 216.343109,275.665833 
	C217.603485,275.356323 218.426392,273.265411 219.601166,271.813965 
	C214.719940,269.707703 209.413544,273.160278 206.122559,266.973022 
	C211.473923,266.973022 215.714859,266.973022 219.835388,266.973022 
	C222.210876,256.911072 218.874573,252.611145 209.478409,253.010757 
	C203.405533,253.269028 201.234100,255.394775 200.907654,261.603851 
	C200.785706,263.923584 200.917160,266.256622 200.990646,269.376587 
M342.756927,255.977097 
	C341.037811,255.088287 339.318695,254.199478 336.920074,252.959351 
	C336.920074,259.535828 336.851196,264.682312 336.943909,269.825897 
	C337.007416,273.349121 339.010529,275.547638 342.442108,275.788971 
	C346.246552,276.056549 350.107513,275.966278 353.903320,275.605286 
	C354.885284,275.511932 356.455597,273.851349 356.494476,272.861145 
	C356.735016,266.735107 356.615356,260.594910 356.615356,254.243317 
	C354.392731,254.243317 352.659088,254.243317 350.278992,254.243317 
	C350.278992,259.897430 350.278992,265.292206 350.278992,270.616364 
	C343.030121,271.089203 342.849976,270.930176 342.788269,264.381592 
	C342.764740,261.882874 342.779419,259.383789 342.756927,255.977097 
M424.960327,262.932556 
	C424.960327,267.197266 424.960327,271.461945 424.960327,276.048767 
	C427.316895,275.931915 429.029999,275.846954 430.911407,275.753662 
	C430.911407,270.271820 431.011902,265.303802 430.874939,260.342346 
	C430.788300,257.203003 429.898773,253.921295 426.289795,253.580490 
	C421.324310,253.111572 416.281311,253.463043 411.348145,253.463043 
	C411.348145,261.539276 411.348145,268.611847 411.348145,275.638672 
	C413.372589,275.638672 415.081451,275.638672 417.152924,275.638672 
	C417.152924,269.679749 417.152924,264.083252 417.152924,258.149719 
	C420.621002,258.359680 424.439850,256.709747 424.960327,262.932556 
M189.282288,268.442841 
	C189.282288,262.650116 189.282288,256.857422 189.282288,250.920990 
	C192.565292,250.639404 195.287216,250.405945 198.010910,250.172333 
	C198.010910,248.259628 198.010910,246.833328 198.010910,245.245239 
	C189.992996,245.245239 182.233200,245.245239 174.080139,245.245239 
	C174.168625,247.060303 174.243607,248.598251 174.326019,250.288788 
	C177.378021,250.469452 179.989594,250.624039 183.147781,250.810989 
	C183.147781,259.251160 183.147781,267.498199 183.147781,275.679535 
	C185.456375,275.679535 187.197159,275.679535 189.282425,275.679535 
	C189.282425,273.377808 189.282425,271.401611 189.282288,268.442841 
M445.725983,270.612488 
	C442.168915,270.873199 438.611816,271.133911 433.509247,271.507904 
	C435.064972,273.539185 435.849792,275.570496 436.842712,275.677887 
	C440.276855,276.049286 443.818878,276.042206 447.252625,275.625488 
	C450.693970,275.207794 452.244293,272.914795 452.127289,269.297455 
	C452.000183,265.367920 449.517212,263.958069 446.360901,262.784271 
	C444.375641,262.045990 442.567047,260.832703 440.679199,259.832520 
	C440.906830,259.305115 441.134460,258.777679 441.362122,258.250275 
	C442.797272,258.143707 444.230896,257.990356 445.667999,257.942902 
	C447.293945,257.889221 448.923035,257.930542 450.481018,257.930542 
	C451.833038,254.579041 450.808685,253.151077 447.687317,253.105820 
	C445.862183,253.079346 444.029755,252.979996 442.212677,253.098511 
	C438.897705,253.314728 435.757355,254.104004 435.172272,258.038879 
	C434.587128,261.973907 436.236420,264.646271 440.114014,266.154449 
	C442.236511,266.980011 444.060242,268.573730 445.725983,270.612488 
M229.309784,275.679077 
	C232.121735,275.746765 234.934052,275.880646 237.745514,275.864685 
	C240.953690,275.846466 241.677887,274.138611 240.653870,271.359039 
	C229.713516,269.950378 229.982056,269.936981 229.699493,264.275726 
	C229.239197,255.053680 236.606461,259.284973 241.688599,257.306427 
	C240.655350,255.793839 239.998901,253.636902 238.830963,253.310547 
	C228.655579,250.467407 223.650497,254.462921 223.773575,265.015198 
	C223.789047,266.341400 223.474701,267.893921 224.044296,268.945526 
	C225.284760,271.235718 226.996841,273.270447 229.309784,275.679077 
M368.246704,247.748795 
	C365.050781,248.061050 359.812958,253.090515 359.919159,255.876953 
	C359.945831,256.576752 360.474945,257.273315 360.829865,257.941223 
	C361.483063,259.170258 362.615814,260.326050 362.764557,261.603638 
	C363.069916,264.226410 362.821411,266.910065 362.866028,269.567566 
	C362.956390,274.950867 365.415131,276.982971 370.809204,275.874969 
	C371.775269,275.676483 373.042236,274.489227 373.204193,273.585388 
	C373.340210,272.826141 372.084778,271.803101 371.417267,270.918091 
	C370.568817,269.793213 369.095184,268.763855 368.945862,267.562286 
	C368.582306,264.636749 368.827484,261.635559 368.827484,259.332916 
	C370.563782,257.986481 371.795013,257.031708 373.026245,256.076904 
	C371.886566,254.847000 370.746887,253.617096 368.903290,251.627518 
	C368.885406,251.345978 368.791504,249.868896 368.246704,247.748795 
M333.103851,165.412689 
	C333.600098,169.648544 335.924408,171.914658 340.235596,172.122513 
	C343.838196,172.296219 346.796967,171.384933 348.151825,167.643250 
	C349.582306,163.692749 347.716553,159.711288 343.863434,158.430786 
	C338.784607,156.743011 334.779999,159.052231 333.103851,165.412689 
M332.040131,247.766693 
	C331.754303,242.806595 328.584686,245.598831 326.434326,245.239563 
	C326.434326,255.713806 326.434326,265.745544 326.434326,275.761658 
	C328.400604,275.761658 329.998657,275.761658 332.042633,275.761658 
	C332.042633,266.588684 332.042633,257.655273 332.040131,247.766693 
M376.717194,274.774445 
	C378.506866,275.275604 380.296539,275.776733 382.443665,276.377991 
	C382.443665,268.377808 382.443665,261.444580 382.443665,254.243103 
	C380.463776,254.243103 378.731873,254.243103 376.633698,254.243103 
	C376.633698,260.947174 376.633698,267.421692 376.717194,274.774445 
M380.997101,244.884842 
	C379.397949,245.610153 377.715240,246.214798 376.295013,247.198471 
	C376.095459,247.336700 376.901398,249.923935 377.739807,250.317917 
	C378.854706,250.841797 381.549255,250.616013 381.658630,250.204987 
	C382.079254,248.624451 381.739075,246.841476 380.997101,244.884842 
z"/>
<path fill="#FCFDFD" opacity="1.000000" stroke="none" 
	d="
M29.998703,257.000000 
	C29.998730,221.532944 30.067259,186.565582 29.909784,151.599228 
	C29.890669,147.354416 30.815559,145.868698 35.387558,145.893188 
	C71.186142,146.085037 106.986488,146.065109 142.785431,145.911453 
	C146.977188,145.893478 148.098190,147.161087 148.085022,151.272247 
	C147.948975,193.731812 147.953629,236.192108 148.079590,278.651733 
	C148.091476,282.655487 147.165756,284.114594 142.862869,284.095093 
	C106.897499,283.931946 70.930817,283.942047 34.965290,284.087128 
	C30.963478,284.103271 29.767096,282.893829 29.919725,278.976624 
	C30.198275,271.827576 29.998783,264.659912 29.998703,257.000000 
M99.393509,188.212555 
	C98.561554,188.770340 97.729599,189.328125 96.333664,189.988235 
	C95.890823,190.308426 95.447990,190.628632 94.333229,191.142944 
	C81.791840,198.496796 69.250450,205.850647 56.097473,213.563126 
	C56.097473,204.958450 56.337219,197.316925 56.003094,189.700546 
	C55.817410,185.467926 57.626656,183.755005 61.927002,182.952454 
	C61.927002,190.015976 61.927002,196.704407 61.927002,203.975525 
	C64.123505,202.744797 65.609436,201.656662 67.269150,201.025589 
	C75.295067,197.973969 78.207024,192.615723 77.260590,183.833679 
	C76.296234,174.885361 77.047340,165.752167 77.047340,155.785507 
	C64.700005,163.020599 53.218479,169.677887 41.857502,176.534897 
	C40.915501,177.103455 40.353203,179.021683 40.348385,180.315536 
	C40.261566,203.639709 40.252979,226.964478 40.378445,250.288330 
	C40.385780,251.652084 41.318092,253.566650 42.426182,254.270554 
	C46.758617,257.022705 51.334831,259.391083 56.288967,262.031219 
	C56.288967,262.031219 56.768238,262.111389 57.094055,262.777100 
	C58.106060,263.443542 59.118069,264.109985 60.480865,264.978546 
	C60.886360,265.025848 61.291851,265.073151 62.020416,265.744812 
	C66.770164,268.621948 71.519920,271.499115 77.015945,274.828339 
	C77.015945,264.535919 77.106071,255.412567 76.961441,246.292953 
	C76.917618,243.529938 77.587708,241.778473 80.170692,240.320938 
	C91.900925,233.701874 103.499748,226.849915 115.626137,220.023361 
	C115.958275,219.871429 116.123947,219.612839 116.266937,218.704102 
	C116.330612,218.527863 116.394287,218.351608 117.140068,218.098114 
	C118.693024,217.757599 120.245979,217.417084 121.875648,218.001221 
	C121.875259,225.652832 121.683067,233.311218 121.953140,240.953278 
	C122.094101,244.941971 120.379173,246.514786 116.156113,247.131088 
	C116.156113,239.878906 116.156113,233.047516 116.156113,225.495377 
	C111.142342,228.435883 106.835930,230.867569 102.653236,233.496124 
	C101.843575,234.004929 101.046700,235.278748 101.038879,236.206390 
	C100.933037,248.751709 100.967827,261.298187 100.967827,275.029358 
	C113.666718,267.333984 125.381302,260.235138 137.687668,252.766663 
	C137.688538,251.858322 137.689423,250.949982 137.823349,249.183823 
	C137.778809,247.451080 137.734268,245.718353 137.862701,243.501678 
	C137.804932,243.340393 137.747177,243.179123 137.822052,242.214478 
	C137.778137,241.132492 137.734207,240.050507 137.901474,238.062714 
	C137.829224,233.056427 137.756973,228.050125 137.815048,222.358765 
	C137.771149,221.898026 137.727249,221.437286 137.888000,220.339325 
	C137.819992,219.903839 137.751984,219.468369 137.819046,218.196121 
	C137.779266,216.786880 137.739471,215.377640 137.910156,213.058929 
	C137.922668,202.407837 137.968826,191.756546 137.905609,181.105896 
	C137.897614,179.757782 137.316208,178.413055 136.540543,176.550842 
	C129.695007,172.694870 122.849457,168.838882 115.649544,164.399551 
	C111.082794,161.706650 106.516045,159.013748 101.610550,156.103958 
	C101.392860,156.374069 101.175163,156.644180 100.976761,157.862152 
	C100.922585,167.890747 100.868416,177.919342 100.393654,187.968307 
	C100.393654,187.968307 99.978180,188.036713 99.393509,188.212555 
z"/>
<path fill="#2626AE" opacity="1.000000" stroke="none" 
	d="
M205.016434,187.995529 
	C211.154144,187.995529 216.794067,187.995529 222.874207,187.995529 
	C222.874207,178.782928 222.874207,169.856674 222.874207,160.467010 
	C227.648392,160.467010 231.996704,160.467010 236.677704,160.467010 
	C236.677704,183.119324 236.677704,205.687515 236.677704,228.630707 
	C232.317093,228.630707 228.087173,228.630707 223.291580,228.630707 
	C223.291580,219.393478 223.291580,210.149399 223.291580,200.576721 
	C213.338470,200.576721 203.934036,200.576721 193.869965,200.576721 
	C193.869965,209.820999 193.869965,219.043350 193.869965,228.626160 
	C189.009659,228.626160 184.796692,228.626160 180.217987,228.626160 
	C180.217987,205.985855 180.217987,183.406235 180.217987,160.410141 
	C184.397278,160.410141 188.625839,160.410141 193.520203,160.410141 
	C193.520203,169.362869 193.520203,178.418869 193.520203,187.995529 
	C197.610046,187.995529 201.064346,187.995529 205.016434,187.995529 
z"/>
<path fill="#2727AE" opacity="1.000000" stroke="none" 
	d="
M271.671448,179.106323 
	C275.042969,179.787430 278.070129,180.136887 280.840820,181.172546 
	C285.264587,182.826202 287.947906,186.249405 288.049286,191.036209 
	C288.278473,201.858047 288.365997,212.687714 288.163361,223.507675 
	C288.138519,224.832977 286.050751,227.180511 284.812531,227.253738 
	C275.229279,227.820450 265.568970,228.658249 256.034576,227.979065 
	C248.397049,227.435013 245.626877,222.253647 245.934509,212.939270 
	C246.193161,205.107422 249.636383,200.840118 257.017212,200.058853 
	C262.783356,199.448502 268.615051,199.457275 274.403534,199.191605 
	C275.803741,193.230164 274.473419,190.922867 268.565796,190.555099 
	C262.465393,190.175339 256.322998,190.470688 250.784454,190.470688 
	C250.106689,189.687225 249.924713,189.575790 249.908371,189.443832 
	C248.800446,180.496735 248.914993,180.192444 257.734741,179.373993 
	C262.197723,178.959839 266.717743,179.160080 271.671448,179.106323 
M263.173279,208.105362 
	C259.680878,208.728546 258.558044,211.025940 259.006989,214.253616 
	C259.484314,217.684952 262.099731,218.179611 264.906158,218.214417 
	C268.160431,218.254745 271.415619,218.223816 274.792786,218.223816 
	C274.792786,214.252716 274.792786,211.240189 274.792786,208.035385 
	C270.970490,208.035385 267.509979,208.035385 263.173279,208.105362 
z"/>
<path fill="#2D2DB0" opacity="1.000000" stroke="none" 
	d="
M311.706665,218.943466 
	C311.706604,222.389191 311.706604,225.345398 311.706604,228.657684 
	C307.085449,228.657684 303.048981,228.657684 298.276215,228.657684 
	C298.276215,225.735428 298.275452,222.960358 298.276337,220.185303 
	C298.279327,210.870285 298.123718,201.551727 298.332031,192.241287 
	C298.531067,183.346008 302.319336,179.593948 311.162292,179.074982 
	C313.812988,178.919418 316.486420,178.977646 319.141632,179.102722 
	C328.101654,179.524811 328.878632,180.572220 327.064667,190.352051 
	C324.267883,190.352051 321.326294,190.291794 318.388000,190.364716 
	C312.445709,190.512161 311.747589,191.202911 311.717529,196.996170 
	C311.680389,204.148605 311.707428,211.301346 311.706665,218.943466 
z"/>
<path fill="#2929AF" opacity="1.000000" stroke="none" 
	d="
M334.205841,211.997589 
	C334.206207,202.175095 334.325714,192.849838 334.144012,183.530457 
	C334.078094,180.149445 334.967773,178.571487 338.606171,178.937424 
	C341.227692,179.201080 343.897095,178.988770 346.993713,178.988770 
	C346.993713,195.656448 346.993713,212.011139 346.993713,228.328018 
	C346.638458,228.545120 346.376312,228.838089 346.094574,228.858353 
	C334.206024,229.713318 334.205780,229.710312 334.205780,217.991028 
	C334.205780,216.159729 334.205811,214.328445 334.205841,211.997589 
z"/>
<path fill="#565656" opacity="1.000000" stroke="none" 
	d="
M295.221252,274.497498 
	C289.019409,275.157166 283.153656,275.602386 277.623779,276.022095 
	C276.011383,271.983521 276.390778,270.296173 279.943665,270.444427 
	C282.769806,270.562347 285.638580,270.694427 288.422791,270.325195 
	C289.732422,270.151489 290.887726,268.814148 292.112976,268.004089 
	C291.199036,266.777802 290.525665,265.158234 289.314728,264.417511 
	C287.506195,263.311249 285.310272,262.846680 283.294708,262.068878 
	C277.930145,259.998749 276.076385,256.842590 277.030792,251.234970 
	C277.894470,246.160110 281.845581,245.325470 285.994995,245.070007 
	C288.476044,244.917282 290.986145,245.106613 293.475952,245.259933 
	C296.637207,245.454620 298.068939,246.878891 296.420685,250.634384 
	C293.312469,250.634384 289.984192,250.428665 286.706238,250.744797 
	C285.542236,250.857071 283.723206,252.142426 283.609070,253.065979 
	C283.479858,254.111755 284.671967,255.821854 285.746124,256.412018 
	C288.055756,257.680969 290.703064,258.315552 293.132263,259.390472 
	C299.701538,262.297333 300.757782,268.955414 295.221252,274.497498 
z"/>
<path fill="#565656" opacity="1.000000" stroke="none" 
	d="
M250.709473,266.015625 
	C250.709381,269.464935 250.709381,272.434814 250.709381,275.704224 
	C248.530029,275.704224 246.793823,275.704224 244.898926,275.704224 
	C244.898926,265.520142 244.898926,255.435394 244.898926,245.168243 
	C246.779785,245.168243 248.400955,245.168243 250.399826,245.168243 
	C250.568909,247.724701 250.729004,250.145584 250.881134,252.445923 
	C251.406815,252.682312 251.707794,252.943771 251.993576,252.928101 
	C265.094177,252.209427 264.416718,256.376068 264.478912,266.475677 
	C264.497223,269.452301 264.481720,272.429138 264.481720,275.708679 
	C262.374176,275.708679 260.651581,275.708679 258.429077,275.708679 
	C258.429077,271.923248 258.472961,268.287994 258.419403,264.654144 
	C258.325470,258.281403 257.961212,257.969879 250.709579,258.323639 
	C250.709579,260.694031 250.709579,263.115112 250.709473,266.015625 
z"/>
<path fill="#565656" opacity="1.000000" stroke="none" 
	d="
M321.997986,261.383545 
	C322.027130,262.824829 322.054443,263.824127 322.047638,264.823181 
	C321.980408,274.662872 315.813995,278.907593 306.559631,275.271057 
	C305.035736,274.672180 302.948853,273.044647 302.838959,271.747131 
	C302.425903,266.869934 301.694458,261.632080 303.019409,257.095062 
	C304.614380,251.633377 310.319916,252.995316 314.684113,253.127899 
	C319.541229,253.275452 321.717560,256.308136 321.997986,261.383545 
M313.191711,258.226440 
	C311.472046,259.085968 308.441223,259.757172 308.285461,260.841339 
	C307.865326,263.766144 308.670074,266.866913 308.988708,269.897797 
	C311.170319,269.616516 314.964203,269.850464 315.247894,268.962646 
	C316.340515,265.543610 317.595184,261.574280 313.191711,258.226440 
z"/>
<path fill="#565656" opacity="1.000000" stroke="none" 
	d="
M402.022034,253.551895 
	C406.941895,256.549988 408.875732,266.993958 405.876678,272.443909 
	C403.910645,276.016724 394.906006,277.585449 390.468750,274.829956 
	C389.071106,273.962036 388.106079,272.192566 387.302246,270.648712 
	C386.804657,269.693024 386.934235,268.387939 386.866608,267.234741 
	C386.117096,254.451538 388.924408,251.827408 402.022034,253.551895 
M400.929108,261.095551 
	C399.959534,257.951355 396.790527,256.959839 395.236206,258.675385 
	C393.501129,260.590485 393.140228,264.150513 393.091125,267.010223 
	C393.069336,268.280029 395.376404,270.707336 396.454956,270.614655 
	C398.043671,270.478088 400.022583,268.842010 400.821686,267.314423 
	C401.570435,265.883087 401.000916,263.762177 400.929108,261.095551 
z"/>
<path fill="#565656" opacity="1.000000" stroke="none" 
	d="
M200.961868,268.980103 
	C200.917160,266.256622 200.785706,263.923584 200.907654,261.603851 
	C201.234100,255.394775 203.405533,253.269028 209.478409,253.010757 
	C218.874573,252.611145 222.210876,256.911072 219.835388,266.973022 
	C215.714859,266.973022 211.473923,266.973022 206.122559,266.973022 
	C209.413544,273.160278 214.719940,269.707703 219.601166,271.813965 
	C218.426392,273.265411 217.603485,275.356323 216.343109,275.665833 
	C207.867844,277.747070 202.858154,275.545837 200.961868,268.980103 
M208.713608,262.972473 
	C210.612198,262.972473 212.510773,262.972473 214.445633,262.972473 
	C214.423630,259.007080 212.635742,257.557343 209.648285,258.329468 
	C207.483856,258.888916 205.656052,260.308838 208.713608,262.972473 
z"/>
<path fill="#5B5A5A" opacity="1.000000" stroke="none" 
	d="
M342.766785,256.431000 
	C342.779419,259.383789 342.764740,261.882874 342.788269,264.381592 
	C342.849976,270.930176 343.030121,271.089203 350.278992,270.616364 
	C350.278992,265.292206 350.278992,259.897430 350.278992,254.243317 
	C352.659088,254.243317 354.392731,254.243317 356.615356,254.243317 
	C356.615356,260.594910 356.735016,266.735107 356.494476,272.861145 
	C356.455597,273.851349 354.885284,275.511932 353.903320,275.605286 
	C350.107513,275.966278 346.246552,276.056549 342.442108,275.788971 
	C339.010529,275.547638 337.007416,273.349121 336.943909,269.825897 
	C336.851196,264.682312 336.920074,259.535828 336.920074,252.959351 
	C339.318695,254.199478 341.037811,255.088287 342.766785,256.431000 
z"/>
<path fill="#545454" opacity="1.000000" stroke="none" 
	d="
M424.944946,262.482697 
	C424.439850,256.709747 420.621002,258.359680 417.152924,258.149719 
	C417.152924,264.083252 417.152924,269.679749 417.152924,275.638672 
	C415.081451,275.638672 413.372589,275.638672 411.348145,275.638672 
	C411.348145,268.611847 411.348145,261.539276 411.348145,253.463043 
	C416.281311,253.463043 421.324310,253.111572 426.289795,253.580490 
	C429.898773,253.921295 430.788300,257.203003 430.874939,260.342346 
	C431.011902,265.303802 430.911407,270.271820 430.911407,275.753662 
	C429.029999,275.846954 427.316895,275.931915 424.960327,276.048767 
	C424.960327,271.461945 424.960327,267.197266 424.944946,262.482697 
z"/>
<path fill="#545454" opacity="1.000000" stroke="none" 
	d="
M189.282349,268.934143 
	C189.282425,271.401611 189.282425,273.377808 189.282425,275.679535 
	C187.197159,275.679535 185.456375,275.679535 183.147781,275.679535 
	C183.147781,267.498199 183.147781,259.251160 183.147781,250.810989 
	C179.989594,250.624039 177.378021,250.469452 174.326019,250.288788 
	C174.243607,248.598251 174.168625,247.060303 174.080139,245.245239 
	C182.233200,245.245239 189.992996,245.245239 198.010910,245.245239 
	C198.010910,246.833328 198.010910,248.259628 198.010910,250.172333 
	C195.287216,250.405945 192.565292,250.639404 189.282288,250.920990 
	C189.282288,256.857422 189.282288,262.650116 189.282349,268.934143 
z"/>
<path fill="#565656" opacity="1.000000" stroke="none" 
	d="
M445.872314,270.216797 
	C444.060242,268.573730 442.236511,266.980011 440.114014,266.154449 
	C436.236420,264.646271 434.587128,261.973907 435.172272,258.038879 
	C435.757355,254.104004 438.897705,253.314728 442.212677,253.098511 
	C444.029755,252.979996 445.862183,253.079346 447.687317,253.105820 
	C450.808685,253.151077 451.833038,254.579041 450.481018,257.930542 
	C448.923035,257.930542 447.293945,257.889221 445.667999,257.942902 
	C444.230896,257.990356 442.797272,258.143707 441.362122,258.250275 
	C441.134460,258.777679 440.906830,259.305115 440.679199,259.832520 
	C442.567047,260.832703 444.375641,262.045990 446.360901,262.784271 
	C449.517212,263.958069 452.000183,265.367920 452.127289,269.297455 
	C452.244293,272.914795 450.693970,275.207794 447.252625,275.625488 
	C443.818878,276.042206 440.276855,276.049286 436.842712,275.677887 
	C435.849792,275.570496 435.064972,273.539185 433.509247,271.507904 
	C438.611816,271.133911 442.168915,270.873199 445.872314,270.216797 
z"/>
<path fill="#565656" opacity="1.000000" stroke="none" 
	d="
M228.912979,275.544312 
	C226.996841,273.270447 225.284760,271.235718 224.044296,268.945526 
	C223.474701,267.893921 223.789047,266.341400 223.773575,265.015198 
	C223.650497,254.462921 228.655579,250.467407 238.830963,253.310547 
	C239.998901,253.636902 240.655350,255.793839 241.688599,257.306427 
	C236.606461,259.284973 229.239197,255.053680 229.699493,264.275726 
	C229.982056,269.936981 229.713516,269.950378 240.653870,271.359039 
	C241.677887,274.138611 240.953690,275.846466 237.745514,275.864685 
	C234.934052,275.880646 232.121735,275.746765 228.912979,275.544312 
z"/>
<path fill="#565656" opacity="1.000000" stroke="none" 
	d="
M368.472137,248.070312 
	C368.791504,249.868896 368.885406,251.345978 368.903290,251.627518 
	C370.746887,253.617096 371.886566,254.847000 373.026245,256.076904 
	C371.795013,257.031708 370.563782,257.986481 368.827484,259.332916 
	C368.827484,261.635559 368.582306,264.636749 368.945862,267.562286 
	C369.095184,268.763855 370.568817,269.793213 371.417267,270.918091 
	C372.084778,271.803101 373.340210,272.826141 373.204193,273.585388 
	C373.042236,274.489227 371.775269,275.676483 370.809204,275.874969 
	C365.415131,276.982971 362.956390,274.950867 362.866028,269.567566 
	C362.821411,266.910065 363.069916,264.226410 362.764557,261.603638 
	C362.615814,260.326050 361.483063,259.170258 360.829865,257.941223 
	C360.474945,257.273315 359.945831,256.576752 359.919159,255.876953 
	C359.812958,253.090515 365.050781,248.061050 368.472137,248.070312 
z"/>
<path fill="#2D2DB0" opacity="1.000000" stroke="none" 
	d="
M333.104736,165.023422 
	C334.779999,159.052231 338.784607,156.743011 343.863434,158.430786 
	C347.716553,159.711288 349.582306,163.692749 348.151825,167.643250 
	C346.796967,171.384933 343.838196,172.296219 340.235596,172.122513 
	C335.924408,171.914658 333.600098,169.648544 333.104736,165.023422 
z"/>
<path fill="#545454" opacity="1.000000" stroke="none" 
	d="
M332.041382,248.244278 
	C332.042633,257.655273 332.042633,266.588684 332.042633,275.761658 
	C329.998657,275.761658 328.400604,275.761658 326.434326,275.761658 
	C326.434326,265.745544 326.434326,255.713806 326.434326,245.239563 
	C328.584686,245.598831 331.754303,242.806595 332.041382,248.244278 
z"/>
<path fill="#5B5A5A" opacity="1.000000" stroke="none" 
	d="
M376.675446,274.335327 
	C376.633698,267.421692 376.633698,260.947174 376.633698,254.243103 
	C378.731873,254.243103 380.463776,254.243103 382.443665,254.243103 
	C382.443665,261.444580 382.443665,268.377808 382.443665,276.377991 
	C380.296539,275.776733 378.506866,275.275604 376.675446,274.335327 
z"/>
<path fill="#5B5A5A" opacity="1.000000" stroke="none" 
	d="
M381.339844,245.009430 
	C381.739075,246.841476 382.079254,248.624451 381.658630,250.204987 
	C381.549255,250.616013 378.854706,250.841797 377.739807,250.317917 
	C376.901398,249.923935 376.095459,247.336700 376.295013,247.198471 
	C377.715240,246.214798 379.397949,245.610153 381.339844,245.009430 
z"/>
<path fill="#10397A" opacity="1.000000" stroke="none" 
	d="
M55.820442,261.902069 
	C51.334831,259.391083 46.758617,257.022705 42.426182,254.270554 
	C41.318092,253.566650 40.385780,251.652084 40.378445,250.288330 
	C40.252979,226.964478 40.261566,203.639709 40.348385,180.315536 
	C40.353203,179.021683 40.915501,177.103455 41.857502,176.534897 
	C53.218479,169.677887 64.700005,163.020599 77.047340,155.785507 
	C77.047340,165.752167 76.296234,174.885361 77.260590,183.833679 
	C78.207024,192.615723 75.295067,197.973969 67.269150,201.025589 
	C65.609436,201.656662 64.123505,202.744797 61.927002,203.975525 
	C61.927002,196.704407 61.927002,190.015976 61.927002,182.952454 
	C57.626656,183.755005 55.817410,185.467926 56.003094,189.700546 
	C56.337219,197.316925 56.097473,204.958450 56.097473,213.563126 
	C69.250450,205.850647 81.791840,198.496796 94.807587,191.500259 
	C97.436371,202.995667 94.354958,211.306381 82.811363,215.130371 
	C81.919090,215.425949 81.193550,216.224838 80.261276,216.783295 
	C80.132050,216.776825 79.998276,216.998337 79.711388,217.068420 
	C79.134239,217.400925 78.843979,217.663376 78.305923,217.927475 
	C77.692192,218.230316 77.326263,218.531479 76.640640,218.872498 
	C75.819351,219.230896 75.317757,219.549484 74.864342,219.877075 
	C74.912521,219.886108 74.874313,219.795822 74.587357,219.921417 
	C73.473648,220.654434 72.646896,221.261871 71.875412,221.882538 
	C71.930687,221.895752 71.924026,221.782288 71.626587,221.846497 
	C71.138046,222.224213 70.946945,222.537735 70.838631,222.818878 
	C70.921410,222.786499 70.823540,222.638092 70.504074,222.637833 
	C69.716957,223.034073 69.249313,223.430573 68.847649,223.856659 
	C68.913635,223.886230 68.936646,223.743454 68.606133,223.768463 
	C67.752640,224.170578 67.229660,224.547668 66.432167,224.938080 
	C65.745422,225.285965 65.333191,225.620483 64.954208,225.968597 
	C64.987450,225.982193 64.993431,225.910614 64.682816,225.965698 
	C64.097771,226.322342 63.823330,226.623901 63.283142,227.094818 
	C61.030872,228.489029 59.044346,229.713898 56.652397,231.120819 
	C56.104794,241.502609 55.962616,251.702347 55.820442,261.902069 
M52.544697,223.193787 
	C55.808739,221.773102 59.137535,220.479965 62.306149,218.871323 
	C63.644566,218.191818 64.822014,216.968781 65.676834,215.721527 
	C65.892159,215.407349 64.512848,213.268234 63.989342,213.315994 
	C62.373772,213.463379 60.552444,213.914612 59.291042,214.876953 
	C56.224281,217.216675 53.428303,219.911316 50.523251,222.462997 
	C49.762947,222.042938 49.002644,221.622879 48.242340,221.202835 
	C49.098888,214.120956 50.051205,207.048279 50.732166,199.949554 
	C50.870361,198.508926 50.243347,196.803314 49.441265,195.560532 
	C49.130726,195.079361 46.589294,195.199905 46.391014,195.641754 
	C45.799980,196.958801 45.601845,198.596024 45.740063,200.061966 
	C45.935802,202.138092 46.929222,204.168457 46.954765,206.226166 
	C47.082943,216.551025 46.993942,226.878403 47.007915,237.204880 
	C47.015114,242.522690 48.737473,244.332260 55.056564,244.966537 
	C48.741249,242.552750 48.531284,237.556870 48.982014,232.247192 
	C49.094311,230.924362 48.644966,229.452713 49.080284,228.282532 
	C49.706348,226.599609 50.906189,225.130157 52.544697,223.193787 
z"/>
<path fill="#1F5296" opacity="1.000000" stroke="none" 
	d="
M101.949295,156.320847 
	C106.516045,159.013748 111.082794,161.706650 115.836853,165.159912 
	C116.019997,169.041458 115.762550,172.189468 116.089531,175.275543 
	C116.365135,177.876785 117.319557,180.406097 117.802658,183.248642 
	C117.019974,185.293030 116.408127,187.056030 115.547325,189.103088 
	C115.579208,191.300400 116.058517,193.208771 116.106026,195.127823 
	C116.296173,202.808533 116.352280,210.492538 116.457970,218.175339 
	C116.394287,218.351608 116.330612,218.527863 115.982147,219.047821 
	C115.427879,219.553162 115.244034,219.783218 115.145844,220.081741 
	C103.499748,226.849915 91.900925,233.701874 80.170692,240.320938 
	C77.587708,241.778473 76.917618,243.529938 76.961441,246.292953 
	C77.106071,255.412567 77.015945,264.535919 77.015945,274.828339 
	C71.519920,271.499115 66.770164,268.621948 61.964752,264.966492 
	C61.961960,253.806107 62.014828,243.424057 62.037067,233.024124 
	C62.006439,233.006256 62.030090,233.073120 62.392353,233.182709 
	C63.358715,232.874695 63.962811,232.457092 64.795723,231.840607 
	C66.051994,231.051453 67.079445,230.461182 68.393921,229.871307 
	C69.475365,229.357483 70.269775,228.843262 71.359039,228.232330 
	C72.141434,227.778198 72.628960,227.420792 73.073341,227.061127 
	C73.030197,227.058899 73.042274,227.144440 73.337036,227.077530 
	C73.790871,226.693298 73.949936,226.375961 74.069321,226.102478 
	C74.029625,226.146347 74.120705,226.221863 74.459717,226.246399 
	C75.605263,225.609406 76.411781,224.947845 77.206558,224.241119 
	C77.194817,224.195953 77.126221,224.259247 77.446442,224.368103 
	C78.227875,224.016647 78.689072,223.556351 79.103119,223.067291 
	C79.055969,223.038513 79.011024,223.139435 79.371140,223.095932 
	C80.344986,222.721222 80.958710,222.389999 81.802422,222.082840 
	C82.374786,221.831192 82.717178,221.555496 83.400055,221.167511 
	C88.556816,218.110641 93.373100,215.166061 98.175186,212.195312 
	C98.160995,212.169128 98.112015,212.202072 98.503998,212.106689 
	C99.624687,210.711273 100.955521,209.422836 100.980881,208.109207 
	C101.110580,201.392365 100.903534,194.669006 100.814240,187.947937 
	C100.868416,177.919342 100.922585,167.890747 101.202164,157.218231 
	C101.601479,156.489807 101.775391,156.405334 101.949295,156.320847 
z"/>
<path fill="#0C3678" opacity="1.000000" stroke="none" 
	d="
M117.973503,182.967255 
	C117.319557,180.406097 116.365135,177.876785 116.089531,175.275543 
	C115.762550,172.189468 116.019997,169.041458 116.014038,165.451599 
	C122.849457,168.838882 129.695007,172.694870 136.758148,177.272354 
	C136.974686,184.478577 137.184814,190.973953 136.857483,197.442154 
	C136.743622,199.691772 135.822800,202.331665 134.363022,203.998611 
	C130.477295,208.435791 128.400528,213.014084 128.858261,219.192505 
	C129.458542,227.295425 129.059036,235.477158 128.955475,243.623291 
	C128.935532,245.192474 128.808838,247.615814 127.861099,248.178040 
	C121.949776,251.684799 115.764412,254.726089 109.735840,258.041595 
	C108.468979,258.738312 107.215958,259.784241 106.517532,260.993286 
	C106.307777,261.356415 107.976944,263.577209 108.819305,263.598419 
	C110.149483,263.631897 111.685745,262.749268 112.813858,261.851196 
	C114.544655,260.473389 115.804153,258.454254 117.621666,257.245697 
	C120.650558,255.231628 123.952255,253.624268 127.158974,251.882278 
	C129.836746,250.427628 131.171814,248.539505 131.078140,245.169159 
	C130.810287,235.532669 131.214249,225.876022 130.883789,216.243439 
	C130.723892,211.582489 132.832153,208.912720 136.490448,206.570084 
	C136.924927,209.228241 137.312302,211.598312 137.699677,213.968399 
	C137.739471,215.377640 137.779266,216.786880 137.563873,218.762939 
	C137.433594,219.878677 137.558472,220.427612 137.683350,220.976547 
	C137.727249,221.437286 137.771149,221.898026 137.513916,223.032425 
	C137.371964,228.793564 137.531113,233.881042 137.690277,238.968521 
	C137.734207,240.050507 137.778137,241.132492 137.609360,242.700638 
	C137.494354,243.453064 137.592041,243.719345 137.689728,243.985611 
	C137.734268,245.718353 137.778809,247.451080 137.538956,249.858353 
	C137.201675,251.400665 137.148773,252.268463 137.095886,253.136246 
	C125.381302,260.235138 113.666718,267.333984 100.967827,275.029358 
	C100.967827,261.298187 100.933037,248.751709 101.038879,236.206390 
	C101.046700,235.278748 101.843575,234.004929 102.653236,233.496124 
	C106.835930,230.867569 111.142342,228.435883 116.156113,225.495377 
	C116.156113,233.047516 116.156113,239.878906 116.156113,247.131088 
	C120.379173,246.514786 122.094101,244.941971 121.953140,240.953278 
	C121.683067,233.311218 121.875259,225.652832 121.939499,217.074875 
	C121.995399,207.114944 121.987442,198.081360 122.302727,188.855728 
	C123.888596,184.467041 121.485023,183.264694 117.973503,182.967255 
z"/>
<path fill="#2A5492" opacity="1.000000" stroke="none" 
	d="
M137.804932,213.513672 
	C137.312302,211.598312 136.924927,209.228241 136.490448,206.570084 
	C132.832153,208.912720 130.723892,211.582489 130.883789,216.243439 
	C131.214249,225.876022 130.810287,235.532669 131.078140,245.169159 
	C131.171814,248.539505 129.836746,250.427628 127.158974,251.882278 
	C123.952255,253.624268 120.650558,255.231628 117.621666,257.245697 
	C115.804153,258.454254 114.544655,260.473389 112.813858,261.851196 
	C111.685745,262.749268 110.149483,263.631897 108.819305,263.598419 
	C107.976944,263.577209 106.307777,261.356415 106.517532,260.993286 
	C107.215958,259.784241 108.468979,258.738312 109.735840,258.041595 
	C115.764412,254.726089 121.949776,251.684799 127.861099,248.178040 
	C128.808838,247.615814 128.935532,245.192474 128.955475,243.623291 
	C129.059036,235.477158 129.458542,227.295425 128.858261,219.192505 
	C128.400528,213.014084 130.477295,208.435791 134.363022,203.998611 
	C135.822800,202.331665 136.743622,199.691772 136.857483,197.442154 
	C137.184814,190.973953 136.974686,184.478577 136.988113,177.530304 
	C137.316208,178.413055 137.897614,179.757782 137.905609,181.105896 
	C137.968826,191.756546 137.922668,202.407837 137.804932,213.513672 
z"/>
<path fill="#9E9E9C" opacity="1.000000" stroke="none" 
	d="
M68.106895,229.870895 
	C67.079445,230.461182 66.051994,231.051453 64.417999,231.818146 
	C63.217670,232.354095 62.623882,232.713608 62.030090,233.073120 
	C62.030090,233.073120 62.006439,233.006256 61.655510,233.151642 
	C60.884621,234.995743 60.120953,236.690735 60.102394,238.393829 
	C60.006584,247.186874 60.101612,255.982025 60.130074,264.776428 
	C59.118069,264.109985 58.106060,263.443542 57.002853,261.971252 
	C56.960373,251.089844 57.009098,241.014297 57.057823,230.938766 
	C59.044346,229.713898 61.030872,228.489029 63.603325,227.045013 
	C64.457314,226.520767 64.725372,226.215698 64.993431,225.910614 
	C64.993431,225.910614 64.987450,225.982193 65.337143,226.010803 
	C66.894455,226.122391 68.102074,226.205383 69.574814,226.306610 
	C69.002403,227.696487 68.554649,228.783691 68.106895,229.870895 
z"/>
<path fill="#BCC5CF" opacity="1.000000" stroke="none" 
	d="
M121.979492,189.047775 
	C121.987442,198.081360 121.995399,207.114944 121.901154,216.612549 
	C120.245979,217.417084 118.693024,217.757599 116.799019,218.136719 
	C116.352280,210.492538 116.296173,202.808533 116.106026,195.127823 
	C116.058517,193.208771 115.579208,191.300400 115.913467,189.300919 
	C117.283745,193.917999 118.038910,198.621292 118.794067,203.324585 
	C120.165993,201.243896 120.603172,198.978683 120.949371,196.699646 
	C121.335838,194.155579 121.639694,191.598938 121.979492,189.047775 
z"/>
<path fill="#D3DADF" opacity="1.000000" stroke="none" 
	d="
M98.189369,212.221481 
	C93.373100,215.166061 88.556816,218.110641 83.360001,220.739441 
	C82.116478,219.212341 81.253487,218.001068 80.390503,216.789780 
	C81.193550,216.224838 81.919090,215.425949 82.811363,215.130371 
	C94.354958,211.306381 97.436371,202.995667 95.143555,191.403198 
	C95.447990,190.628632 95.890823,190.308426 96.641586,190.415909 
	C96.805847,197.651642 96.662186,204.459717 96.507812,211.775665 
	C96.334656,211.729752 97.262009,211.975616 98.189369,212.221481 
z"/>
<path fill="#BCC5CF" opacity="1.000000" stroke="none" 
	d="
M98.175179,212.195312 
	C97.262009,211.975616 96.334656,211.729752 96.507812,211.775665 
	C96.662186,204.459717 96.805847,197.651642 96.923576,190.364746 
	C97.729599,189.328125 98.561554,188.770340 99.697617,188.589188 
	C99.371819,196.711243 98.741913,204.456650 98.112015,212.202072 
	C98.112015,212.202072 98.160995,212.169128 98.175179,212.195312 
z"/>
<path fill="#BCC5CF" opacity="1.000000" stroke="none" 
	d="
M60.305466,264.877502 
	C60.101612,255.982025 60.006584,247.186874 60.102394,238.393829 
	C60.120953,236.690735 60.884621,234.995743 61.686138,233.169495 
	C62.014828,243.424057 61.961960,253.806107 61.803215,264.654297 
	C61.291851,265.073151 60.886360,265.025848 60.305466,264.877502 
z"/>
<path fill="#D3DADF" opacity="1.000000" stroke="none" 
	d="
M56.652397,231.120819 
	C57.009098,241.014297 56.960373,251.089844 56.839943,261.638367 
	C56.768238,262.111389 56.288967,262.031219 56.054703,261.966644 
	C55.962616,251.702347 56.104794,241.502609 56.652397,231.120819 
z"/>
<path fill="#D3DADF" opacity="1.000000" stroke="none" 
	d="
M98.503998,212.106689 
	C98.741913,204.456650 99.371819,196.711243 99.989952,188.501266 
	C99.978180,188.036713 100.393654,187.968307 100.603943,187.958130 
	C100.903534,194.669006 101.110580,201.392365 100.980881,208.109207 
	C100.955521,209.422836 99.624687,210.711273 98.503998,212.106689 
z"/>
<path fill="#2A5492" opacity="1.000000" stroke="none" 
	d="
M137.795868,238.515625 
	C137.531113,233.881042 137.371964,228.793564 137.448761,223.374969 
	C137.756973,228.050125 137.829224,233.056427 137.795868,238.515625 
z"/>
<path fill="#2A5492" opacity="1.000000" stroke="none" 
	d="
M137.391785,252.951447 
	C137.148773,252.268463 137.201675,251.400665 137.472443,250.287262 
	C137.689423,250.949982 137.688538,251.858322 137.391785,252.951447 
z"/>
<path fill="#2A5492" opacity="1.000000" stroke="none" 
	d="
M137.785675,220.657928 
	C137.558472,220.427612 137.433594,219.878677 137.496338,219.181305 
	C137.751984,219.468369 137.819992,219.903839 137.785675,220.657928 
z"/>
<path fill="#BCC5CF" opacity="1.000000" stroke="none" 
	d="
M115.385986,220.052551 
	C115.244034,219.783218 115.427879,219.553162 115.910263,219.319580 
	C116.123947,219.612839 115.958275,219.871429 115.385986,220.052551 
z"/>
<path fill="#2A5492" opacity="1.000000" stroke="none" 
	d="
M137.776215,243.743652 
	C137.592041,243.719345 137.494354,243.453064 137.543060,243.102325 
	C137.747177,243.179123 137.804932,243.340393 137.776215,243.743652 
z"/>
<path fill="#D3DADF" opacity="1.000000" stroke="none" 
	d="
M101.779922,156.212402 
	C101.775391,156.405334 101.601479,156.489807 101.192513,156.744293 
	C101.175163,156.644180 101.392860,156.374069 101.779922,156.212402 
z"/>
<path fill="#FAF7F0" opacity="1.000000" stroke="none" 
	d="
M263.611359,208.070374 
	C267.509979,208.035385 270.970490,208.035385 274.792786,208.035385 
	C274.792786,211.240189 274.792786,214.252716 274.792786,218.223816 
	C271.415619,218.223816 268.160431,218.254745 264.906158,218.214417 
	C262.099731,218.179611 259.484314,217.684952 259.006989,214.253616 
	C258.558044,211.025940 259.680878,208.728546 263.611359,208.070374 
z"/>
<path fill="#FAF7F0" opacity="1.000000" stroke="none" 
	d="
M313.578430,258.377686 
	C317.595184,261.574280 316.340515,265.543610 315.247894,268.962646 
	C314.964203,269.850464 311.170319,269.616516 308.988708,269.897827 
	C308.670074,266.866913 307.865326,263.766144 308.285461,260.841339 
	C308.441223,259.757172 311.472046,259.085968 313.578430,258.377686 
z"/>
<path fill="#FAF7F0" opacity="1.000000" stroke="none" 
	d="
M400.970306,261.520142 
	C401.000916,263.762177 401.570435,265.883087 400.821686,267.314423 
	C400.022583,268.842010 398.043671,270.478088 396.454956,270.614655 
	C395.376404,270.707336 393.069336,268.280029 393.091125,267.010223 
	C393.140228,264.150513 393.501129,260.590485 395.236206,258.675385 
	C396.790527,256.959839 399.959534,257.951355 400.970306,261.520142 
z"/>
<path fill="#FAF7F0" opacity="1.000000" stroke="none" 
	d="
M208.292450,262.945251 
	C205.656052,260.308838 207.483856,258.888916 209.648285,258.329468 
	C212.635742,257.557343 214.423630,259.007080 214.445633,262.972473 
	C212.510773,262.972473 210.612198,262.972473 208.292450,262.945251 
z"/>
<path fill="#1F5296" opacity="1.000000" stroke="none" 
	d="
M52.202911,223.381683 
	C50.906189,225.130157 49.706348,226.599609 49.080284,228.282532 
	C48.644966,229.452713 49.094311,230.924362 48.982014,232.247192 
	C48.531284,237.556870 48.741249,242.552750 55.056564,244.966537 
	C48.737473,244.332260 47.015114,242.522690 47.007915,237.204880 
	C46.993942,226.878403 47.082943,216.551025 46.954765,206.226166 
	C46.929222,204.168457 45.935802,202.138092 45.740063,200.061966 
	C45.601845,198.596024 45.799980,196.958801 46.391014,195.641754 
	C46.589294,195.199905 49.130726,195.079361 49.441265,195.560532 
	C50.243347,196.803314 50.870361,198.508926 50.732166,199.949554 
	C50.051205,207.048279 49.098888,214.120956 48.242340,221.202835 
	C49.002644,221.622879 49.762947,222.042938 50.523251,222.462997 
	C53.428303,219.911316 56.224281,217.216675 59.291042,214.876953 
	C60.552444,213.914612 62.373772,213.463379 63.989342,213.315994 
	C64.512848,213.268234 65.892159,215.407349 65.676834,215.721527 
	C64.822014,216.968781 63.644566,218.191818 62.306149,218.871323 
	C59.137535,220.479965 55.808739,221.773102 52.202911,223.381683 
z"/>
<path fill="#BCC5CF" opacity="1.000000" stroke="none" 
	d="
M80.261276,216.783295 
	C81.253487,218.001068 82.116478,219.212341 83.019516,220.851715 
	C82.717178,221.555496 82.374786,221.831192 81.424629,222.086792 
	C80.214912,222.424271 79.612968,222.781860 79.011024,223.139435 
	C79.011024,223.139435 79.055969,223.038513 78.769035,223.045898 
	C78.030136,223.455276 77.578178,223.857269 77.126221,224.259247 
	C77.126221,224.259247 77.194817,224.195953 76.859924,224.152893 
	C75.723595,224.813843 74.922150,225.517853 74.120705,226.221863 
	C74.120705,226.221863 74.029625,226.146347 73.814751,226.195160 
	C73.414009,226.544128 73.228142,226.844284 73.042274,227.144440 
	C73.042274,227.144440 73.030197,227.058899 72.736923,227.075500 
	C71.983833,227.504410 71.524010,227.916733 71.064178,228.329056 
	C70.269775,228.843262 69.475365,229.357483 68.393921,229.871307 
	C68.554649,228.783691 69.002403,227.696487 69.574814,226.306610 
	C68.102074,226.205383 66.894455,226.122391 65.303894,225.997208 
	C65.333191,225.620483 65.745422,225.285965 66.777008,224.921112 
	C67.909790,224.508331 68.423218,224.125900 68.936646,223.743454 
	C68.936646,223.743454 68.913635,223.886230 69.191757,223.883972 
	C69.921104,223.467178 70.372322,223.052643 70.823547,222.638092 
	C70.823540,222.638092 70.921410,222.786499 71.121231,222.755280 
	C71.522041,222.410141 71.723038,222.096222 71.924026,221.782288 
	C71.924026,221.782288 71.930687,221.895752 72.259308,221.924088 
	C73.350067,221.233551 74.112190,220.514694 74.874313,219.795822 
	C74.874313,219.795822 74.912521,219.886108 75.197220,219.919830 
	C75.974724,219.579910 76.467529,219.206284 76.960335,218.832657 
	C77.326263,218.531479 77.692192,218.230316 78.595695,217.852264 
	C79.421608,217.516388 79.709938,217.257355 79.998276,216.998337 
	C79.998276,216.998337 80.132050,216.776825 80.261276,216.783295 
z"/>
<path fill="#D3DADF" opacity="1.000000" stroke="none" 
	d="
M74.587357,219.921417 
	C74.112190,220.514694 73.350067,221.233551 72.204041,221.910858 
	C72.646896,221.261871 73.473648,220.654434 74.587357,219.921417 
z"/>
<path fill="#D3DADF" opacity="1.000000" stroke="none" 
	d="
M76.640640,218.872498 
	C76.467529,219.206284 75.974724,219.579910 75.149040,219.910797 
	C75.317757,219.549484 75.819351,219.230896 76.640640,218.872498 
z"/>
<path fill="#D3DADF" opacity="1.000000" stroke="none" 
	d="
M70.504074,222.637833 
	C70.372322,223.052643 69.921104,223.467178 69.125778,223.854401 
	C69.249313,223.430573 69.716957,223.034073 70.504074,222.637833 
z"/>
<path fill="#D3DADF" opacity="1.000000" stroke="none" 
	d="
M68.606133,223.768463 
	C68.423218,224.125900 67.909790,224.508331 67.051529,224.907761 
	C67.229660,224.547668 67.752640,224.170578 68.606133,223.768463 
z"/>
<path fill="#BCC5CF" opacity="1.000000" stroke="none" 
	d="
M64.682816,225.965698 
	C64.725372,226.215698 64.457314,226.520767 63.869068,226.875656 
	C63.823330,226.623901 64.097771,226.322342 64.682816,225.965698 
z"/>
<path fill="#D3DADF" opacity="1.000000" stroke="none" 
	d="
M71.626587,221.846497 
	C71.723038,222.096222 71.522041,222.410141 71.038452,222.787659 
	C70.946945,222.537735 71.138046,222.224213 71.626587,221.846497 
z"/>
<path fill="#D3DADF" opacity="1.000000" stroke="none" 
	d="
M79.711388,217.068420 
	C79.709938,217.257355 79.421608,217.516388 78.843498,217.850616 
	C78.843979,217.663376 79.134239,217.400925 79.711388,217.068420 
z"/>
<path fill="#9E9E9C" opacity="1.000000" stroke="none" 
	d="
M122.302727,188.855728 
	C121.639694,191.598938 121.335838,194.155579 120.949371,196.699646 
	C120.603172,198.978683 120.165993,201.243896 118.794067,203.324585 
	C118.038910,198.621292 117.283745,193.917999 116.162430,189.016876 
	C116.408127,187.056030 117.019974,185.293030 117.802658,183.248642 
	C121.485023,183.264694 123.888596,184.467041 122.302727,188.855728 
z"/>
<path fill="#D3DADF" opacity="1.000000" stroke="none" 
	d="
M74.459717,226.246399 
	C74.922150,225.517853 75.723595,224.813843 76.871674,224.198059 
	C76.411781,224.947845 75.605263,225.609406 74.459717,226.246399 
z"/>
<path fill="#BCC5CF" opacity="1.000000" stroke="none" 
	d="
M62.392353,233.182709 
	C62.623882,232.713608 63.217670,232.354095 64.189186,232.017044 
	C63.962811,232.457092 63.358715,232.874695 62.392353,233.182709 
z"/>
<path fill="#D3DADF" opacity="1.000000" stroke="none" 
	d="
M79.371140,223.095932 
	C79.612968,222.781860 80.214912,222.424271 81.194649,222.062744 
	C80.958710,222.389999 80.344986,222.721222 79.371140,223.095932 
z"/>
<path fill="#D3DADF" opacity="1.000000" stroke="none" 
	d="
M77.446442,224.368103 
	C77.578178,223.857269 78.030136,223.455276 78.816185,223.074677 
	C78.689072,223.556351 78.227875,224.016647 77.446442,224.368103 
z"/>
<path fill="#D3DADF" opacity="1.000000" stroke="none" 
	d="
M71.359039,228.232330 
	C71.524010,227.916733 71.983833,227.504410 72.780075,227.077728 
	C72.628960,227.420792 72.141434,227.778198 71.359039,228.232330 
z"/>
<path fill="#D3DADF" opacity="1.000000" stroke="none" 
	d="
M73.337036,227.077530 
	C73.228142,226.844284 73.414009,226.544128 73.854446,226.151306 
	C73.949936,226.375961 73.790871,226.693298 73.337036,227.077530 
z"/>
</svg>